HIERARCHY
ROOT Hips
{
  OFFSET -327.016 93.3505 301.686
  CHANNELS 6 Xposition Yposition Zposition Zrotation Xrotation Yrotation
  JOINT ToSpine
  {
    OFFSET -0.0105055 1.38907 -7.13956
    CHANNELS 3 Zrotation Xrotation Yrotation
    JOINT Spine
    {
      OFFSET 0.0105055 10 1
      CHANNELS 3 Zrotation Xrotation Yrotation
      JOINT Spine1
      {
        OFFSET 0 12 1.60637
        CHANNELS 3 Zrotation Xrotation Yrotation
        JOINT Neck
        {
          OFFSET 0 27 2.26658
          CHANNELS 3 Zrotation Xrotation Yrotation
          JOINT Head
          {
            OFFSET 0 9 2.12705
            CHANNELS 3 Zrotation Xrotation Yrotation
            End Site
            {
              OFFSET 0 11 2
            }
          }
        }
        JOINT LeftShoulder
        {
          OFFSET 8 19.6109 2.86452
          CHANNELS 3 Zrotation Xrotation Yrotation
          JOINT LeftArm
          {
            OFFSET 12 1 0.681055
            CHANNELS 3 Zrotation Xrotation Yrotation
            JOINT LeftForeArm
            {
              OFFSET 19 0 -1.52608
              CHANNELS 3 Zrotation Xrotation Yrotation
              JOINT LeftHand
              {
                OFFSET 23 0 0
                CHANNELS 3 Zrotation Xrotation Yrotation
                End Site
                {
                  OFFSET 10 0 0
                }
              }
            }
          }
        }
        JOINT RightShoulder
        {
          OFFSET -8 19.6109 2.86452
          CHANNELS 3 Zrotation Xrotation Yrotation
          JOINT RightArm
          {
            OFFSET -12 1 0.681055
            CHANNELS 3 Zrotation Xrotation Yrotation
            JOINT RightForeArm
            {
              OFFSET -19 0 -1.52608
              CHANNELS 3 Zrotation Xrotation Yrotation
              JOINT RightHand
              {
                OFFSET -23 0 0
                CHANNELS 3 Zrotation Xrotation Yrotation
                End Site
                {
                  OFFSET -10 0 0
                }
              }
            }
          }
        }
      }
    }
  }
  JOINT LeftUpLeg
  {
    OFFSET 9 -7.17245 0
    CHANNELS 3 Zrotation Xrotation Yrotation
    JOINT LeftLeg
    {
      OFFSET 0 -44.1113 0
      CHANNELS 3 Zrotation Xrotation Yrotation
      JOINT LeftFoot
      {
        OFFSET 0 -36.1829 0
        CHANNELS 3 Zrotation Xrotation Yrotation
        JOINT LeftToeBase
        {
          OFFSET 0 -4.84184 13
          CHANNELS 3 Zrotation Xrotation Yrotation
          End Site
          {
            OFFSET 0 1 6
          }
        }
      }
    }
  }
  JOINT RightUpLeg
  {
    OFFSET -9 -7.17245 0
    CHANNELS 3 Zrotation Xrotation Yrotation
    JOINT RightLeg
    {
      OFFSET 0 -44.0551 0
      CHANNELS 3 Zrotation Xrotation Yrotation
      JOINT RightFoot
      {
        OFFSET 0 -36.1469 0
        CHANNELS 3 Zrotation Xrotation Yrotation
        JOINT RightToeBase
        {
          OFFSET 0 -4.92256 13
          CHANNELS 3 Zrotation Xrotation Yrotation
          End Site
          {
            OFFSET 0 1 6
          }
        }
      }
    }
  }
}
MOTION
Frames:	8
Frame Time:	0.0333333
-61.1155 98.1569 9.49834 4.68506 0.665148 -37.999 0 0 0 7.8852 10.4101 0.374187 -11.3484 -1.64785 2.77765 3.60668 -0.53174 -1.14314 0.0873681 -5.01305 -0.0849635 -30.0023 3.55767 -6.34082 -33.7925 20.4097 -12.1556 -4.29116 -14.5523 -6.72712 -11.3019 0.257768 -2.60462 22.8373 5.37761 14.8051 47.0221 14.9183 6.56232 1.48035 -0.801402 15.1673 2.40042 0.0994994 4.74651 0.835769 -24.861 11.0654 -0.269446 27.9964 -16.3789 1.90826 -8.07411 0.134691 -0.282587 2.85735 0.375789 -1.28034 -1.68309 -6.74716 0.781502 17.1376 -1.66183 -22.3816 -11.5043 -2.28337 4.92953 -19.7421 -7.8879 
-60.5597 98.3066 8.48552 4.6329 0.591564 -37.5328 0 0 0 6.75834 10.0885 0.488426 -9.30299 -1.74286 2.4475 2.95035 -0.860495 -0.981791 -0.30745 -4.60132 -0.05356 -30.3285 3.45572 -5.97563 -33.0226 20.6325 -12.8791 -3.90347 -13.4292 -10.2478 -11.1377 0.242701 -2.4888 22.881 5.39404 14.8346 48.4499 13.498 3.69032 1.61429 -0.338096 13.8825 2.77765 0.106941 4.40881 1.662 -23.6939 11.6176 1.38727e-009 32.0959 -16.9565 4.48541 -10.2045 0.400692 0.628135 0.704869 -2.7524 -1.19319 -2.07494 -6.77075 0.92274 16.5968 -1.8364 -22.3559 -10.7338 -2.12705 4.8906 -19.5046 -7.69634 
-60.0764 98.4513 7.57365 4.40174 1.0533 -36.9897 0 0 0 6.46067 9.01244 0.599008 -7.72247 -1.34888 2.24517 2.24387 -1.17519 -0.757274 -0.506459 -4.21226 -0.0046933 -31.1923 3.44122 -5.71997 -32.183 20.0767 -13.0203 -3.65692 -13.7281 -14.581 -10.7184 0.291746 -3.10923 23.1681 5.45394 14.8667 49.3333 12.3319 1.22461 1.954 -0.133691 12.1355 2.79924 0.115078 4.70731 2.79309 -22.6885 10.7379 -7.06333e-007 35.2884 -16.3288 4.01424 -11.9533 0.420429 0.745764 0.103994 -3.13839 -0.593646 -2.65947 -6.43689 0.988403 15.92 -2.38696 -21.2487 -10.2505 -1.92781 4.57139 -17.7326 -6.36051 
-59.6083 98.6178 6.90155 4.25622 0.749029 -37.1006 0 0 0 6.18127 8.67167 0.820072 -7.11749 -1.31506 2.349 2.34341 -1.23563 -0.851036 -1.23941 -3.96657 0.0707904 -31.5051 3.38594 -5.49746 -33.0322 16.666 -12.6187 -2.78176 -11.135 -17.9427 -10.0986 0.318661 -3.6054 23.1736 5.49133 14.9874 50.7416 12.1031 -1.35005 2.23486 0.4456 10.8397 2.4896 0.0877252 4.03551 3.27934 -19.955 10.7699 4.73311e-007 35.6534 -15.9474 5.10797 -12.0405 0.539049 1.03974 -1.34214 -4.18359 -0.917533 -2.67552 -6.82743 1.21755 15.4891 -1.48231 -20.138 -9.5056 -1.69166 4.72026 -18.4548 -6.58589 
-59.1577 98.6963 6.33482 3.78429 0.987706 -37.0769 0 0 0 6.77459 7.83313 0.831727 -6.95157 -1.05397 2.33151 2.81054 -1.27649 -0.694558 -2.17276 -3.55814 0.54298 -31.2974 3.30985 -5.34437 -35.0085 11.6506 -11.7874 -1.98289 -7.10269 -21.0495 -9.6486 0.340224 -4.02946 23.613 5.67575 15.3362 51.5299 12.7574 -3.45591 3.04601 -0.700571 9.30078 2.994 0.0994339 3.80345 4.35626 -17.4252 10.7218 -2.08951e-007 35.1506 -15.552 4.00256 -13.9556 0.490075 0.947949 -2.4686 -3.60534 -0.370936 -2.68225 -6.42576 1.05608 14.6789 -1.22109 -18.7277 -9.16519 -1.51449 4.53247 -17.5452 -6.2985 
-58.7808 98.7858 5.80385 3.71578 1.28362 -36.9175 0 0 0 6.8657 6.90758 0.787815 -6.78961 -1.10939 2.21289 3.59506 -1.2905 -0.708551 -2.53465 -3.19718 0.831435 -29.9439 3.2547 -5.51996 -38.3782 6.71855 -10.6987 -1.37687 -3.66363 -23.5779 -9.18194 0.329396 -4.10036 23.9764 5.64373 15.0211 52.4578 12.5418 -4.92336 3.29304 -0.769977 8.30432 4.83507 0.142894 3.38362 5.09892 -15.2871 10.7243 4.37893e-007 33.7343 -16.3688 3.07766 -16.7361 0.452821 0.673377 1.40869 -3.0508 -0.115625 -2.96763 -6.32093 0.886775 13.9752 -1.33403 -16.658 -9.35793 -1.373 4.14538 -15.6971 -5.2965 
-58.3763 98.8202 5.49228 3.49716 1.06329 -36.5958 0 0 0 6.2397 6.32784 0.504005 -5.74691 -1.12663 1.71527 4.03511 -1.01236 -0.440423 -2.98736 -3.11679 1.32154 -29.1166 3.1832 -5.5256 -40.5728 5.02487 -9.69582 -0.990057 -2.20391 -24.8177 -9.0796 0.344257 -4.33364 24.2354 5.70437 15.0679 53.1327 12.4895 -6.36211 3.39968 -0.164021 7.62447 5.345 0.141446 3.02955 5.2091 -12.3018 10.5771 -1.34903e-007 30.4551 -16.6317 4.86191 -15.6828 0.669974 1.01272 -3.38786 -3.75848 -0.400978 -2.90271 -6.94951 1.16149 13.9608 -0.899578 -16.2804 -8.91799 -1.27813 4.22629 -16.0377 -5.12584 
-57.9717 98.9036 5.15397 3.18148 1.12283 -36.2168 0 0 0 5.36277 5.40843 0.226856 -4.01657 -0.560623 1.08598 3.68138 -1.23854 0.11398 -3.27697 -2.83199 1.82186 -30.2483 3.1733 -5.22255 -40.2311 5.95412 -9.22216 -0.791751 -1.73212 -24.9853 -9.65146 0.3807 -4.50704 24.5491 5.76236 15.0744 53.1 11.6831 -7.2942 3.36067 -0.420579 7.27125 5.04083 0.144002 3.27056 5.6326 -9.85511 9.86501 -0.133532 26.9134 -17.2262 4.22326 -15.7688 0.585112 0.996936 -3.76378 -3.62021 -0.138397 -2.79064 -6.82484 1.05173 13.4393 -1.18173 -14.9529 -8.75891 -1.15168 4.01161 -15.0962 -5.06968 
